<svg width="172" height="151" viewBox="0 0 172 151" fill="none" xmlns="http://www.w3.org/2000/svg">
<rect x="0.5" y="0.5" width="171" height="150" rx="23.5" stroke="black"/>
<path d="M85.72 26.0011C73.818 26.0011 62.658 31.7667 55.771 41.4741C48.8843 51.1811 47.1304 63.6221 51.064 74.8531C55.0015 86.0831 64.134 94.7121 75.572 98.0011C75.5524 96.8761 75.5485 95.7902 75.5642 94.7394C74.5447 94.4152 73.5486 94.0363 72.572 93.6222L75.9626 86.587C76.0485 85.6222 76.5836 81.255 76.6071 81.0909C71.0641 78.3409 67.0602 73.2393 65.7051 67.2039C64.35 61.1685 65.791 54.8409 69.627 49.9889C73.4629 45.1373 79.2872 42.2741 85.471 42.1998C91.6548 42.1255 97.545 44.8443 101.498 49.6021C105.451 54.3599 107.045 60.6491 105.838 66.7151C104.631 72.7815 100.752 77.9811 95.2758 80.8601C95.2953 81.0515 95.643 85.3015 95.7367 87.114L98.8695 93.6179C97.8891 94.0359 96.889 94.4148 95.8656 94.739C95.8461 95.8718 95.807 96.9695 95.7523 98.0281V98.032C107.213 94.7781 116.385 86.165 120.35 74.93C124.311 63.692 122.577 51.231 115.694 41.504C108.811 31.7813 97.6351 26 85.7211 26L85.72 26.0011ZM112.915 82.4071L105.114 76.1883C106.548 74.1414 107.645 71.8797 108.364 69.4891L118.083 71.7079H118.087C117.013 75.5556 115.263 79.1808 112.915 82.4071ZM118.083 53.7271L108.364 55.9498C107.645 53.5553 106.552 51.2936 105.122 49.2428L112.911 43.028L112.915 43.0319C115.263 46.2624 117.013 49.8835 118.083 53.7309L118.083 53.7271ZM109.056 66.4421C109.454 63.9773 109.458 61.4616 109.06 58.9929L118.774 56.7741L118.778 56.778C119.489 60.7077 119.493 64.7311 118.782 68.661L109.056 66.4421ZM87.2827 39.1411V29.1645C91.271 29.3442 95.1968 30.2426 98.8727 31.809L94.5446 40.7973C92.2282 39.8598 89.7749 39.3012 87.2827 39.1411ZM76.8957 40.7973L72.5676 31.809C76.2434 30.2426 80.1692 29.3442 84.1576 29.1645V39.1411C81.6654 39.3013 79.2121 39.8598 76.8957 40.7973ZM53.3527 71.7073L63.0754 69.4885C63.798 71.8791 64.8918 74.1408 66.3254 76.1877L58.5246 82.4065C56.1769 79.1799 54.4269 75.5547 53.3527 71.7073ZM52.1261 62.719C52.13 60.7268 52.3097 58.7385 52.6612 56.7776L62.38 58.9924C61.9816 61.4612 61.9855 63.9768 62.38 66.4416L52.6573 68.6604C52.3058 66.6995 52.1261 64.7112 52.1261 62.719ZM63.0751 55.9495L53.3563 53.7307C54.4266 49.883 56.1766 46.2619 58.5243 43.0317L66.3134 49.2465L66.3173 49.2426C64.8876 51.2934 63.7939 53.555 63.0751 55.9495ZM74.0911 83.2695L69.7591 92.2617C66.2513 90.3594 63.1068 87.8515 60.4739 84.8515L68.2747 78.6327H68.2708C69.9583 80.4725 71.9192 82.039 74.0911 83.2695ZM68.263 46.8005L60.4778 40.5896C63.1067 37.5857 66.2473 35.074 69.7551 33.1677L74.0832 42.156C71.9113 43.3904 69.9466 44.9568 68.263 46.8005ZM97.357 42.156L101.685 33.1677C105.193 35.0739 108.333 37.5857 110.962 40.5896L103.177 46.8005C101.494 44.9567 99.5289 43.3903 97.357 42.156ZM101.681 92.261L97.3531 83.2688V83.2727C99.5211 82.0383 101.482 80.4719 103.166 78.6282L110.966 84.8509C108.334 87.8509 105.189 90.3586 101.681 92.261Z" fill="#00AACD"/>
<path d="M85.3109 48.6044C84.4711 47.8427 83.2523 47.6669 82.2289 48.1591C81.2602 48.6708 80.7055 49.7294 80.8383 50.8193C80.9008 51.5497 81.0805 52.2685 81.1469 52.999C81.518 57.0185 80.475 60.6787 79.3696 64.554C78.4594 67.7493 78.4634 70.3938 79.3774 72.4134V72.4095C79.7329 73.179 80.2563 73.8626 80.9126 74.4056L80.0025 79.7806L79.9986 79.7766C77.6158 94.4486 78.4205 109.465 82.3658 123.797C82.6978 125.082 83.8463 125.984 85.1744 126.004C86.4947 125.879 87.5806 124.91 87.8541 123.613C88.1744 122.258 88.5416 120.867 88.9244 119.398C91.2642 110.496 94.1783 99.4102 91.9713 79.2892L91.9673 79.2541L91.2291 73.676C93.1353 71.8049 94.2408 69.2698 94.315 66.5979C94.4322 59.1682 89.5416 52.2619 85.3111 48.6059L85.3109 48.6044ZM82.3773 65.4094C83.5101 61.4289 84.682 57.3117 84.2601 52.7064C84.2484 52.5775 84.1273 51.8079 84.1156 51.7376C88.5218 55.9212 91.2679 61.6282 91.1898 66.5466C91.1468 69.2654 89.2328 72.445 86.2171 72.8357C84.7054 73.0349 82.8851 72.5779 82.2249 71.1209C81.6311 69.8123 81.682 67.8351 82.3773 65.4094ZM85.5257 76.0034C86.4788 76.0073 87.4241 75.8432 88.3226 75.519L88.8031 79.1284H83.2797L83.8422 75.812C84.393 75.937 84.9593 76.0034 85.5257 76.0034ZM85.9046 118.601C85.6117 119.722 85.3265 120.797 85.0726 121.832V121.836C81.764 108.914 80.9788 95.4728 82.764 82.2538H89.1273C90.7484 100.152 88.0726 110.348 85.9046 118.606L85.9046 118.601Z" fill="#00AACD"/>
</svg>
