<svg width="172" height="151" viewBox="0 0 172 151" fill="none" xmlns="http://www.w3.org/2000/svg">
<rect x="0.5" y="0.5" width="171" height="150" rx="23.5" stroke="black"/>
<path d="M115.938 83.3281C116.246 82.7461 116.438 82.0937 116.438 81.3867V78.6094C116.438 76.3125 114.571 74.4414 112.27 74.4414H90.0469C87.75 74.4414 85.8789 76.3086 85.8789 78.6094V81.3867C85.8789 82.0898 86.0703 82.7461 86.3789 83.3281C81.2695 84.8984 77.543 89.6601 77.543 95.2771V114.722C77.543 118.55 80.6602 121.667 84.4883 121.667H117.82C121.648 121.667 124.766 118.55 124.766 114.722V95.2771C124.766 89.6599 121.039 84.8981 115.93 83.3281H115.938ZM88.6609 81.3867V78.6094C88.6609 77.8438 89.2859 77.2188 90.0515 77.2188H112.274C113.04 77.2188 113.665 77.8399 113.665 78.6094V81.3867C113.665 82.1523 113.04 82.7773 112.274 82.7773H90.0515C89.2858 82.7773 88.6609 82.1562 88.6609 81.3867ZM121.993 114.723C121.993 117.02 120.126 118.891 117.825 118.891H84.4929C82.196 118.891 80.3249 117.024 80.3249 114.723V95.2777C80.3249 89.9183 84.6843 85.555 90.0476 85.555H112.271C117.63 85.555 121.993 89.9183 121.993 95.2777L121.993 114.723Z" fill="#00AACD"/>
<path d="M84.4922 111.941C83.7265 111.941 83.1016 112.562 83.1016 113.332V114.723C83.1016 115.492 83.7227 116.113 84.4922 116.113C85.2578 116.113 85.8828 115.492 85.8828 114.723V113.332C85.8828 112.562 85.2617 111.941 84.4922 111.941Z" fill="#00AACD"/>
<path d="M88.6601 111.941C87.8945 111.941 87.2695 112.562 87.2695 113.332V114.723C87.2695 115.492 87.8906 116.113 88.6601 116.113C89.4258 116.113 90.0507 115.492 90.0507 114.723V113.332C90.0507 112.562 89.4296 111.941 88.6601 111.941Z" fill="#00AACD"/>
<path d="M92.8281 111.941C92.0625 111.941 91.4375 112.562 91.4375 113.332V114.723C91.4375 115.492 92.0586 116.113 92.8281 116.113C93.5937 116.113 94.2187 115.492 94.2187 114.723V113.332C94.2187 112.562 93.5976 111.941 92.8281 111.941Z" fill="#00AACD"/>
<path d="M96.9922 111.941C96.2265 111.941 95.6016 112.562 95.6016 113.332V114.723C95.6016 115.492 96.2227 116.113 96.9922 116.113C97.7578 116.113 98.3828 115.492 98.3828 114.723V113.332C98.3828 112.562 97.7617 111.941 96.9922 111.941Z" fill="#00AACD"/>
<path d="M101.16 111.941C100.395 111.941 99.7695 112.562 99.7695 113.332V114.723C99.7695 115.492 100.391 116.113 101.16 116.113C101.926 116.113 102.551 115.492 102.551 114.723V113.332C102.551 112.562 101.93 111.941 101.16 111.941Z" fill="#00AACD"/>
<path d="M105.328 111.941C104.562 111.941 103.938 112.562 103.938 113.332V114.723C103.938 115.492 104.559 116.113 105.328 116.113C106.094 116.113 106.719 115.492 106.719 114.723V113.332C106.719 112.562 106.098 111.941 105.328 111.941Z" fill="#00AACD"/>
<path d="M109.492 111.941C108.727 111.941 108.102 112.562 108.102 113.332V114.723C108.102 115.492 108.723 116.113 109.492 116.113C110.258 116.113 110.883 115.492 110.883 114.723V113.332C110.883 112.562 110.262 111.941 109.492 111.941Z" fill="#00AACD"/>
<path d="M113.66 111.941C112.895 111.941 112.27 112.562 112.27 113.332V114.723C112.27 115.492 112.891 116.113 113.66 116.113C114.426 116.113 115.051 115.492 115.051 114.723V113.332C115.051 112.562 114.43 111.941 113.66 111.941Z" fill="#00AACD"/>
<path d="M117.828 111.941C117.062 111.941 116.438 112.562 116.438 113.332V114.723C116.438 115.492 117.059 116.113 117.828 116.113C118.594 116.113 119.219 115.492 119.219 114.723V113.332C119.219 112.562 118.598 111.941 117.828 111.941Z" fill="#00AACD"/>
<path d="M85.8826 50.8318V72.2338C85.8826 73.0033 86.5037 73.6244 87.2732 73.6244C88.0389 73.6244 88.6638 73.0033 88.6638 72.2338V50.8318C88.6638 45.6482 85.488 41.1912 80.9841 39.3008C81.4451 38.6289 81.7224 37.8203 81.7224 36.9453V34.168C81.7224 31.8711 79.8552 30 77.5544 30H58.1094C55.8125 30 53.9414 31.8672 53.9414 34.168V36.9453C53.9414 37.8203 54.2149 38.6328 54.6797 39.3008C50.1719 41.1914 47 45.6485 47 50.8318V103.609C47 107.437 50.1172 110.554 53.9453 110.554H74.7773C75.5429 110.554 76.1679 109.933 76.1679 109.164C76.1679 108.394 75.5468 107.773 74.7773 107.773H53.9453C51.6484 107.773 49.7773 105.906 49.7773 103.605L49.7734 50.8319C49.7734 45.4725 54.1328 41.1092 59.4961 41.1092H76.1641C81.5235 41.1092 85.8868 45.4725 85.8868 50.8319L85.8826 50.8318ZM59.4916 38.3318H58.101C57.3354 38.3318 56.7104 37.7107 56.7104 36.9412V34.1639C56.7104 33.3983 57.3354 32.7733 58.101 32.7733H77.546C78.3117 32.7733 78.9366 33.3944 78.9366 34.1639V36.9412C78.9366 37.7068 78.3116 38.3318 77.546 38.3318H59.4916Z" fill="#00AACD"/>
<path d="M66.4375 102.223V103.613C66.4375 104.383 67.0586 105.004 67.8281 105.004C68.5937 105.004 69.2187 104.383 69.2187 103.613V102.223C69.2187 101.453 68.5976 100.832 67.8281 100.832C67.0625 100.832 66.4375 101.453 66.4375 102.223Z" fill="#00AACD"/>
<path d="M70.6055 102.223V103.613C70.6055 104.383 71.2266 105.004 71.9961 105.004C72.7617 105.004 73.3867 104.383 73.3867 103.613V102.223C73.3867 101.453 72.7656 100.832 71.9961 100.832C71.2305 100.832 70.6055 101.453 70.6055 102.223Z" fill="#00AACD"/>
<path d="M53.9375 102.223V103.613C53.9375 104.383 54.5586 105.004 55.3281 105.004C56.0937 105.004 56.7187 104.383 56.7187 103.613V102.223C56.7187 101.453 56.0976 100.832 55.3281 100.832C54.5625 100.832 53.9375 101.453 53.9375 102.223Z" fill="#00AACD"/>
<path d="M58.1055 102.223V103.613C58.1055 104.383 58.7266 105.004 59.4961 105.004C60.2617 105.004 60.8867 104.383 60.8867 103.613V102.223C60.8867 101.453 60.2656 100.832 59.4961 100.832C58.7304 100.832 58.1055 101.453 58.1055 102.223Z" fill="#00AACD"/>
<path d="M62.2734 102.223V103.613C62.2734 104.383 62.8945 105.004 63.664 105.004C64.4297 105.004 65.0546 104.383 65.0546 103.613V102.223C65.0546 101.453 64.4335 100.832 63.664 100.832C62.8984 100.832 62.2734 101.453 62.2734 102.223Z" fill="#00AACD"/>
</svg>
