<svg width="66" height="51" viewBox="0 0 66 51" fill="none" xmlns="http://www.w3.org/2000/svg">
<path fill-rule="evenodd" clip-rule="evenodd" d="M33.9158 49.4953L13.0761 50.1631C12.6768 50.1759 12.4591 50.1092 12.5339 49.6541C12.5419 49.577 12.5395 49.4992 12.5265 49.4228C12.3921 48.5112 12.4185 47.6946 13.5112 47.3332C13.8287 47.2283 14.0231 46.8957 14.1714 46.6015C14.6396 45.7864 14.3395 45.1171 13.4292 44.9357L13.4283 44.9355C13.1085 44.8708 12.9512 44.8389 12.8894 44.7445C12.8296 44.6531 12.8595 44.5029 12.9185 44.2071L12.9306 44.1464C13.0997 43.3087 13.1378 42.4499 13.0436 41.6005C12.9444 41.1443 12.7095 40.7289 12.3697 40.409C12.03 40.0892 11.6013 39.8799 11.1404 39.8087C10.9647 39.7974 10.7976 39.7287 10.6647 39.6132C10.5318 39.4976 10.4405 39.3416 10.4047 39.1691C10.0058 37.9455 9.56043 36.7361 9.11417 35.5241L9.11415 35.5241L8.96552 35.1203C8.74707 34.5171 8.31659 34.0591 7.89041 33.6057L7.89036 33.6056C7.76505 33.4723 7.64012 33.3394 7.52105 33.2033C6.3751 31.9026 5.22971 30.62 4.08433 29.3373C3.59339 28.7876 3.10245 28.2378 2.61147 27.6866C2.59261 27.6662 2.56963 27.6448 2.54621 27.623L2.54617 27.6229C2.48161 27.5628 2.41371 27.4996 2.41968 27.4454C2.46656 26.9827 2.18492 26.8108 1.89241 26.6323C1.81096 26.5826 1.72866 26.5323 1.65238 26.4752C1.37414 26.2953 1.15704 26.0351 1.02984 25.729C0.902649 25.4229 0.871357 25.0853 0.940114 24.761C0.990213 24.4103 1.14599 24.0833 1.38667 23.8235C1.62734 23.5638 1.94145 23.3837 2.28707 23.3073C2.50607 23.2708 2.73013 23.2782 2.94625 23.329C3.16237 23.3799 3.36625 23.4732 3.54605 23.6036C3.72585 23.734 3.878 23.8988 3.99367 24.0884C4.10933 24.2781 4.18621 24.4889 4.21983 24.7086L4.24477 25.4868C4.26162 26.0126 4.38633 26.1296 4.92202 25.944C5.6374 25.6496 6.31697 25.2747 6.9476 24.8264C8.26207 24 9.5657 23.1635 10.8141 22.2445C12.3703 21.0445 13.4746 19.3524 13.9469 17.4438C14.101 16.9015 14.2082 16.3468 14.2672 15.7861C14.2847 15.732 14.2906 15.6749 14.2843 15.6184C14.2781 15.562 14.2599 15.5075 14.2309 15.4586C14.202 15.4097 14.163 15.3676 14.1165 15.335C14.07 15.3024 14.0171 15.2801 13.9614 15.2695C13.6822 15.1553 13.4309 14.9824 13.2244 14.7624C13.0179 14.5424 12.8611 14.2806 12.7647 13.9946C12.6682 13.7086 12.6343 13.4052 12.6654 13.105C12.6964 12.8047 12.7916 12.5147 12.9445 12.2546C13.097 12.0139 13.3017 11.8108 13.5435 11.6603C13.7853 11.5099 14.0579 11.416 14.341 11.3857C14.6241 11.3554 14.9104 11.3894 15.1786 11.4852C15.4467 11.581 15.6898 11.7362 15.8897 11.9391C16.5932 12.7219 16.8102 13.915 15.9764 14.6418C15.8128 14.7891 15.8904 14.913 15.989 15.0361C17.7287 16.9752 19.6883 18.5599 22.4225 18.8775C22.5803 18.8971 22.7404 18.8806 22.8909 18.8293C23.0413 18.778 23.1782 18.6932 23.2912 18.5813C24.5662 17.3838 25.7449 16.0877 26.8165 14.7049C28.7221 12.2313 30.2786 9.5071 31.4423 6.60883C31.6037 6.22995 31.6705 6.01727 31.1739 5.78054C30.8699 5.6236 30.6003 5.4074 30.3811 5.14465C30.1618 4.8819 29.9972 4.57791 29.8971 4.25057C29.7969 3.92323 29.7632 3.57914 29.7978 3.23857C29.8325 2.89799 29.9349 2.56779 30.0989 2.26741C30.2526 1.97836 30.4618 1.72251 30.7145 1.51453C30.9671 1.30655 31.2583 1.15053 31.5714 1.05542C31.8844 0.960305 32.2131 0.927966 32.5386 0.960255C32.8642 0.992544 33.1802 1.08883 33.4685 1.24358C33.9138 1.47706 34.2797 1.83786 34.5195 2.28007C34.7594 2.72229 34.8624 3.22592 34.8154 3.72688C34.7994 4.21917 34.6334 4.69479 34.3397 5.08994C34.0459 5.48508 33.6385 5.78085 33.1719 5.93757C32.9381 6.02402 32.8726 6.1156 32.9953 6.33273C34.9871 9.90595 37.1641 13.3469 40.1479 16.2041C40.8051 16.8148 41.5106 17.3713 42.2574 17.8682C42.5094 18.0341 42.7961 18.14 43.0953 18.1778C43.3946 18.2157 43.6986 18.1845 43.9839 18.0865C45.9036 17.559 47.6024 16.4268 48.8288 14.8574C48.8504 14.8323 48.8711 14.8048 48.8922 14.7768L48.8923 14.7768C48.9257 14.7324 48.9603 14.6867 49.0009 14.6466C49.5107 14.1461 49.8333 13.7094 49.3347 12.92C49.1288 12.5857 49.049 12.1886 49.1099 11.8006C49.1707 11.4126 49.3682 11.0591 49.6665 10.804C49.9372 10.5091 50.2931 10.3063 50.6846 10.2239C51.0761 10.1415 51.4836 10.1837 51.8499 10.3446C52.0417 10.4388 52.2114 10.5724 52.3481 10.7367C52.4847 10.901 52.5852 11.0923 52.643 11.2981C52.8776 11.8018 52.9036 12.3778 52.7154 12.9005C52.5273 13.4232 52.1402 13.8503 51.6386 14.0884C51.442 14.1894 51.3507 14.2924 51.3944 14.5068C51.8395 16.7453 52.745 18.7479 54.5129 20.2545C55.3925 20.9319 56.3322 21.5272 57.3202 22.0331C57.5319 22.1516 57.7436 22.2699 57.9552 22.3881L57.9556 22.3883L57.9559 22.3885L57.9563 22.3887C58.847 22.8864 59.7363 23.3833 60.619 23.8907C60.8849 24.0379 61.1634 24.1611 61.4512 24.2587C61.8714 24.4084 61.979 24.3208 61.9223 23.8647C61.8887 23.6086 61.8682 23.351 61.8608 23.0929C61.8331 22.709 61.9466 22.3281 62.1799 22.0221C62.4132 21.716 62.7502 21.5059 63.1275 21.4312C63.4914 21.3327 63.8781 21.3624 64.2228 21.5152C64.5676 21.668 64.8494 21.9346 65.0212 22.2705C65.1878 22.6165 65.2363 23.0078 65.159 23.384C65.0817 23.7603 64.8831 24.1006 64.5936 24.3528C64.2592 24.5846 64.0214 24.9312 63.9254 25.3269C63.8467 25.6612 63.5874 25.9565 63.328 26.2517C63.2212 26.3733 63.1145 26.4948 63.0203 26.6191C61.4625 28.6586 59.8994 30.6983 58.3311 32.7382C58.1903 32.9361 58.0886 33.1591 58.0314 33.3952C57.8421 34.086 57.6495 34.7759 57.4571 35.4652L57.4564 35.4679L57.4556 35.4708L57.4554 35.4715C57.2225 36.306 56.9898 37.1395 56.7635 37.9729C56.7537 38.0777 56.703 38.1743 56.6225 38.2419C56.542 38.3095 56.4381 38.3427 56.3333 38.3341C55.8863 38.3312 55.4519 38.4822 55.1028 38.7616C54.7537 39.0411 54.5112 39.4322 54.4158 39.8693C54.2437 40.3923 54.1772 40.9442 54.2201 41.4931C54.263 42.042 54.4144 42.5769 54.6655 43.0668C54.8 43.3256 54.7339 43.3962 54.489 43.4672C54.2572 43.5439 54.0347 43.6464 53.8257 43.7727C53.6912 43.8298 53.5716 43.9171 53.4761 44.0277C53.3805 44.1383 53.3115 44.2694 53.2744 44.4108C53.2373 44.5522 53.2331 44.7003 53.262 44.8437C53.291 44.987 53.3524 45.1218 53.4414 45.2377C53.7406 45.7412 54.1991 46.1303 54.7442 46.3434C54.9347 46.396 55.0981 46.5191 55.2012 46.6879C55.3042 46.8566 55.3393 47.0583 55.2992 47.252C55.2739 47.6639 55.2748 48.077 55.302 48.4888C55.3096 48.7254 55.2342 48.8331 54.9969 48.8144C54.904 48.8121 54.8111 48.8151 54.7185 48.8233L33.9158 49.4953ZM39.8747 18.487L42.3858 18.4066C42.5672 18.3985 42.7483 18.428 42.9178 18.4932C43.0873 18.5584 43.2415 18.6579 43.3708 18.7855C43.5403 18.9265 43.7092 19.068 43.8783 19.2097L43.8784 19.2098L43.8784 19.2098L43.8785 19.2099C44.4206 19.6641 44.9639 20.1193 45.5311 20.5585C45.6137 20.6156 45.6793 20.6939 45.7211 20.7852C45.7629 20.8765 45.7793 20.9774 45.7686 21.0773C45.7522 24.5061 45.7342 27.9349 45.7143 31.3638C45.714 31.5005 45.6765 31.6346 45.6058 31.7515C45.2236 32.4123 44.894 33.1022 44.6202 33.8148C44.582 33.9277 44.5067 34.0242 44.4065 34.0886C44.3064 34.153 44.1873 34.1815 44.0689 34.1693L41.1901 34.2616C40.9222 34.2702 40.81 34.2159 40.8008 33.9267C40.7888 33.5534 40.7664 33.1817 40.7439 32.81C40.7215 32.4383 40.6991 32.0667 40.6871 31.6934C40.677 31.3779 40.5582 31.2817 40.271 31.3435L40.0398 31.3509C39.9018 31.3692 39.7497 31.3617 39.5987 31.3542C39.2914 31.3389 38.9882 31.3239 38.815 31.527C38.6384 31.734 38.6879 32.0271 38.7378 32.3229C38.761 32.4601 38.7842 32.598 38.7851 32.728C38.7868 33.0017 38.7984 33.2891 38.8099 33.5764C38.8157 33.7201 38.8215 33.8638 38.826 34.0058C38.8334 34.2371 38.7684 34.3392 38.5265 34.3417L36.1941 34.4164C35.9682 34.4237 35.8855 34.3053 35.7907 34.1346C35.5377 33.5818 35.3243 33.0117 35.1523 32.4287C34.8851 31.6318 34.463 30.8958 33.9102 30.2631C33.8329 30.1794 33.781 30.0753 33.7607 29.9632C33.7403 29.8511 33.7523 29.7354 33.7952 29.6299L34.2805 27.96L34.2813 27.9571C35.1431 24.9921 36.005 22.0265 36.8483 19.0577C36.8713 18.8908 36.959 18.7396 37.0925 18.6368C37.226 18.534 37.3945 18.488 37.5616 18.5085L39.8888 18.4339L39.8747 18.487ZM28.4969 18.8721L26.1697 18.9466C25.2248 18.9348 24.2799 18.9703 23.3387 19.0532C23.1116 19.065 22.8963 19.1578 22.7318 19.3147C22.0036 20.0048 21.2664 20.6846 20.5201 21.3541C20.4428 21.4183 20.3823 21.5005 20.3441 21.5935C20.3058 21.6865 20.2909 21.7874 20.3006 21.8875L20.3006 21.8877C20.3655 22.6014 20.4305 23.3151 20.4534 24.0301L21.0106 32.0654C20.9986 32.2103 21.0289 32.3556 21.0977 32.4837C21.5501 33.1348 21.9403 33.8272 22.263 34.5517C22.2984 34.6482 22.3667 34.7291 22.4559 34.7802C22.5451 34.8313 22.6494 34.8492 22.7505 34.8308L25.6713 34.7372C25.9499 34.7336 26.0472 34.6515 26.0382 34.3728C26.0295 34.0214 26.03 33.6696 26.0305 33.3179C26.0311 32.9222 26.0317 32.5265 26.019 32.1312C26.0106 31.8683 26.0694 31.7348 26.3644 31.7517C26.7601 31.7793 27.1572 31.7806 27.553 31.7557C27.8887 31.7291 27.9563 31.8691 27.9659 32.1688L28.0333 34.272C28.0373 34.5614 28.1249 34.6691 28.4349 34.6592L29.7587 34.6168C31.1298 34.5728 31.1403 34.5725 31.4281 33.2158C31.5977 32.2707 31.963 31.3715 32.5004 30.576C32.6426 30.3951 32.7305 30.1774 32.7539 29.9483C32.7773 29.7193 32.7352 29.4883 32.6325 29.2822C31.4111 25.958 30.2208 22.617 29.0357 19.2759C28.9422 18.9841 28.812 18.862 28.4969 18.8721ZM15.3387 35.7631L11.9609 35.8714C11.8337 35.8819 11.7057 35.8669 11.5844 35.8275C11.4631 35.788 11.3508 35.7247 11.2541 35.6414C10.7193 35.1893 10.1772 34.771 9.6304 34.349L9.43031 34.1945C9.22592 34.037 9.08 33.8156 9.01575 33.5656C8.3398 31.2889 7.66023 29.0088 6.97704 26.7253C6.93527 26.6298 6.93088 26.5221 6.96473 26.4235C6.99859 26.3249 7.06822 26.2427 7.15981 26.1931C8.59577 25.1645 10.0191 24.1241 11.4297 23.0718C11.8709 22.7464 12.345 22.8 12.8146 22.853L12.8146 22.853C12.9246 22.8655 13.0343 22.8779 13.1433 22.8853C13.2291 22.8826 13.3133 23.0104 13.3914 23.129L13.3914 23.1291C13.4185 23.1702 13.4449 23.2102 13.4703 23.2433L18.5801 30.0852C18.7631 30.3284 18.9461 30.5721 19.1291 30.8158C19.4954 31.3036 19.8617 31.7915 20.2279 32.2747C20.3005 32.3517 20.3482 32.449 20.3647 32.5536C20.3812 32.6583 20.3657 32.7655 20.3203 32.8612C19.9799 33.7248 19.6447 34.5882 19.3256 35.4617C19.2388 35.7066 19.0655 35.7121 18.8606 35.7187L15.3409 35.8315L15.3387 35.7631ZM48.5052 34.6424L51.7937 34.537L51.7764 34.4902L55.1122 34.3833C55.3874 34.3845 55.6521 34.2778 55.8494 34.0859C56.2986 33.661 56.7582 33.2357 57.2345 32.8362C57.5109 32.6205 57.6991 32.3113 57.764 31.9666L57.8248 31.674C58.2828 29.4662 58.7418 27.2541 59.2252 25.0509C59.2731 24.9202 59.2703 24.7762 59.2175 24.6474C59.1648 24.5186 59.0657 24.4142 58.9399 24.3547C58.7652 24.2447 58.5905 24.1348 58.416 24.0251C57.272 23.3054 56.1336 22.5893 55.0103 21.8489C54.5533 21.5496 54.0171 21.3944 53.471 21.4035C53.3382 21.3883 53.2039 21.4121 53.0845 21.472C52.965 21.532 52.8655 21.6254 52.7982 21.7409C50.7429 24.8841 48.6768 28.0207 46.6 31.1506C46.5116 31.2524 46.4598 31.3808 46.4526 31.5155C46.4455 31.6502 46.4836 31.7834 46.5608 31.894C47.0121 32.6848 47.4637 33.4862 47.8736 34.2994C47.9216 34.422 48.0112 34.5236 48.1268 34.5864C48.2424 34.6491 48.3764 34.669 48.5052 34.6424Z" fill="#03934D"/>
</svg>
