<svg width="172" height="151" viewBox="0 0 172 151" fill="none" xmlns="http://www.w3.org/2000/svg">
<rect x="0.5" y="0.5" width="171" height="150" rx="23.5" stroke="black"/>
<path d="M77.0117 87.2229C77.0117 87.7776 76.707 88.262 76.2617 88.5237C74.0429 90.0549 72.207 92.1135 70.9414 94.5042C69.707 96.8401 69.0039 99.5159 69.0039 102.352C69.0039 103.676 69.1562 104.957 69.4414 106.184L69.457 106.242C69.7617 107.535 70.2148 108.766 70.7929 109.91C71.164 110.649 70.8671 111.547 70.1289 111.922C69.3906 112.293 68.4922 111.996 68.1172 111.258C67.4258 109.891 66.8945 108.442 66.5352 106.934L66.5234 106.871C66.1836 105.418 66 103.903 66 102.352C66 99.0199 66.8281 95.8714 68.293 93.1097C69.6836 90.4847 71.6485 88.2113 74.0118 86.4574V40.7734C74.0118 37.5351 75.336 34.5898 77.4688 32.457C79.6016 30.3242 82.5469 29 85.7852 29C89.0157 29 91.961 30.3242 94.0938 32.457L94.1016 32.4648C96.2305 34.5976 97.5547 37.539 97.5547 40.7734V58.8634C97.5547 59.6915 96.8828 60.3634 96.0547 60.3634C95.2266 60.3634 94.5547 59.6915 94.5547 58.8634V40.7734C94.5547 38.3593 93.5664 36.164 91.9844 34.5781C90.3906 32.9843 88.1992 32 85.7852 32C83.375 32 81.1797 32.9883 79.5899 34.5781C78.0001 36.1679 77.0118 38.3593 77.0118 40.7734V87.2264L77.0117 87.2229ZM84.2851 48.6329C84.2851 47.8047 84.957 47.1329 85.7851 47.1329C86.6132 47.1329 87.2851 47.8047 87.2851 48.6329V58.8599C87.2851 59.688 86.6132 60.3599 85.7851 60.3599C84.957 60.3599 84.2851 59.688 84.2851 58.8599V48.6329ZM84.2851 63.5469C84.2851 62.7187 84.957 62.0469 85.7851 62.0469C86.6132 62.0469 87.2851 62.7187 87.2851 63.5469V64.0703C87.2851 64.8984 86.6132 65.5703 85.7851 65.5703C84.957 65.5703 84.2851 64.8984 84.2851 64.0703V63.5469ZM84.2851 68.7539C84.2851 67.9257 84.957 67.2539 85.7851 67.2539C86.6132 67.2539 87.2851 67.9257 87.2851 68.7539V88.8669C90.4257 89.2106 93.246 90.6364 95.371 92.7575L95.3788 92.7653C97.828 95.2223 99.3476 98.6091 99.3476 102.347C99.3476 106.085 97.8281 109.476 95.3749 111.933L95.3671 111.941C92.9101 114.39 89.5233 115.91 85.7851 115.91C82.0469 115.91 78.6562 114.39 76.1992 111.937L76.1914 111.929C73.7422 109.472 72.2226 106.085 72.2226 102.347C72.2226 98.6091 73.7421 95.2184 76.1953 92.7614L76.2031 92.7536C78.3281 90.6364 81.1484 89.2145 84.2851 88.8669V68.7539ZM93.2578 94.8749C91.3516 92.9647 88.707 91.7851 85.7851 91.7851C82.8632 91.7851 80.2187 92.9687 78.3163 94.8749C76.4022 96.7851 75.2225 99.4296 75.2225 102.351C75.2225 105.273 76.4061 107.914 78.3123 109.82C80.2225 111.734 82.8709 112.914 85.7889 112.914C88.7108 112.914 91.3514 111.73 93.2577 109.824C95.1718 107.914 96.3515 105.266 96.3515 102.348C96.3515 99.4258 95.168 96.7851 93.2578 94.8749ZM97.5586 86.4491C99.9258 88.203 101.887 90.4803 103.281 93.1053C104.742 95.867 105.574 99.0115 105.574 102.347C105.574 107.808 103.355 112.749 99.7813 116.331C96.2032 119.917 91.254 122.132 85.7933 122.132C83.9144 122.132 82.0902 121.867 80.3636 121.374C78.5863 120.867 76.8988 120.113 75.3558 119.156C74.6527 118.722 74.4378 117.796 74.8753 117.093C75.3089 116.39 76.2347 116.175 76.9378 116.613C78.2386 117.421 79.6722 118.062 81.1839 118.495C82.6409 118.913 84.1917 119.136 85.7933 119.136C90.4261 119.136 94.6253 117.257 97.6603 114.218C100.696 111.187 102.578 106.984 102.578 102.351C102.578 99.5113 101.875 96.8394 100.641 94.5034C99.3752 92.1128 97.5431 90.062 95.3244 88.5268C94.8713 88.269 94.5666 87.7807 94.5666 87.2221V68.7571C94.5666 67.929 95.2385 67.2571 96.0666 67.2571C96.8947 67.2571 97.5666 67.929 97.5666 68.7571V86.4521L97.5586 86.4491ZM73.5896 113.887C74.1482 114.493 74.1091 115.446 73.5037 116C72.8982 116.559 71.9451 116.52 71.3904 115.914L71.0388 115.532C70.4802 114.926 70.5193 113.973 71.1247 113.418C71.7302 112.86 72.6833 112.899 73.238 113.504L73.5896 113.887ZM94.5586 63.5431C94.5586 62.7149 95.2305 62.0431 96.0586 62.0431C96.8867 62.0431 97.5586 62.7149 97.5586 63.5431V64.0665C97.5586 64.8946 96.8867 65.5665 96.0586 65.5665C95.2305 65.5665 94.5586 64.8946 94.5586 64.0665V63.5431Z" fill="#00AACD"/>
</svg>
