<svg width="33" height="34" viewBox="0 0 33 34" fill="none" xmlns="http://www.w3.org/2000/svg">
<path fill-rule="evenodd" clip-rule="evenodd" d="M5.34635 7.64236C4.61417 7.64236 4.00955 8.24698 4.00955 8.97917V25.0208C4.00955 25.753 4.61417 26.3576 5.34635 26.3576H26.7352C27.4674 26.3576 28.072 25.753 28.072 25.0208V8.97917C28.072 8.24698 27.4674 7.64236 26.7352 7.64236H5.34635ZM1.33594 8.97917C1.33594 6.77038 3.13757 4.96875 5.34635 4.96875H26.7352C28.944 4.96875 30.7457 6.77038 30.7457 8.97917V25.0208C30.7457 27.2296 28.944 29.0312 26.7352 29.0312H5.34635C3.13757 29.0312 1.33594 27.2296 1.33594 25.0208V8.97917Z" fill="white"/>
<path fill-rule="evenodd" clip-rule="evenodd" d="M1.5777 8.21094C2.00109 7.6061 2.83463 7.45901 3.43947 7.88239L16.0409 16.7034L28.6424 7.88239C29.2472 7.45901 30.0807 7.6061 30.5041 8.21094C30.9275 8.81577 30.7804 9.64931 30.1756 10.0727L16.8075 19.4303C16.3472 19.7525 15.7346 19.7525 15.2743 19.4303L1.90625 10.0727C1.30141 9.64931 1.15432 8.81577 1.5777 8.21094Z" fill="white"/>
</svg>
