<svg width="30" height="30" viewBox="0 0 30 30" fill="none" xmlns="http://www.w3.org/2000/svg">
<path d="M24.7176 28.0778C24.6099 28.0778 24.5022 28.0778 24.3826 28.0658C20.5175 27.647 16.7601 26.3068 13.5173 24.2008C10.5018 22.2862 7.89317 19.6775 5.97858 16.6621C3.87253 13.4072 2.53231 9.6379 2.12546 5.77282C2.0776 5.25827 2.13743 4.76766 2.29299 4.28901C2.44855 3.81036 2.71181 3.37958 3.04686 3.00862C3.38191 2.63767 3.78876 2.35048 4.24348 2.14706C4.71016 1.94363 5.20078 1.83594 5.70336 1.83594H9.29321C10.1308 1.83594 10.9924 2.13509 11.6625 2.70947C12.3207 3.27188 12.7514 4.06165 12.8711 4.92322C13.0147 5.98821 13.278 7.04123 13.6489 8.03443C13.8882 8.6806 13.9481 9.37464 13.7925 10.0447C13.6489 10.7149 13.3139 11.3371 12.8352 11.8157L11.9736 12.6773C13.3857 14.8791 15.2524 16.7578 17.4661 18.1698L18.3277 17.3082C18.8183 16.8176 19.4405 16.4826 20.1107 16.3509C20.7808 16.2073 21.4748 16.2552 22.121 16.4945C23.1142 16.8655 24.1672 17.1287 25.2202 17.2723C26.1057 17.392 26.8955 17.8347 27.4699 18.5048C28.0323 19.175 28.3434 20.0246 28.3195 20.8981V24.476C28.3195 24.9786 28.2237 25.4572 28.0203 25.9239C27.8169 26.3786 27.5177 26.7974 27.1587 27.1325C26.7878 27.4675 26.357 27.7308 25.8784 27.8863C25.4954 28.018 25.1125 28.0778 24.7176 28.0778ZM9.31715 4.22918H9.30518H5.70336C5.53583 4.22918 5.38027 4.26508 5.22471 4.33687C5.06915 4.3967 4.92555 4.49243 4.81786 4.61209C4.6982 4.73176 4.61443 4.87535 4.56657 5.04288C4.5187 5.19844 4.49477 5.36596 4.50674 5.53349C4.87769 9.01565 6.08627 12.4141 7.9889 15.3697C9.724 18.098 12.0813 20.4553 14.8096 22.1904C17.7533 24.105 21.1517 25.3016 24.6219 25.6846C24.7655 25.6965 24.933 25.6726 25.0886 25.6247C25.2442 25.5769 25.3877 25.4811 25.5194 25.3734C25.651 25.2657 25.7467 25.1222 25.8066 24.9666C25.8784 24.811 25.9023 24.6435 25.9023 24.476V20.8861C25.9023 20.8742 25.9023 20.8622 25.9023 20.8622C25.9143 20.563 25.8066 20.2878 25.6151 20.0605C25.4236 19.8331 25.1604 19.6895 24.8732 19.6536C23.6526 19.498 22.4321 19.1869 21.2594 18.7561C21.044 18.6724 20.8047 18.6604 20.5893 18.7083C20.3619 18.7561 20.1585 18.8638 19.991 19.0314L18.4833 20.5511C18.1003 20.934 17.514 21.0058 17.0473 20.7425C13.8643 18.9356 11.2317 16.2911 9.41288 13.1201C9.16159 12.6175 9.23338 12.0311 9.6163 11.6482L11.136 10.1285C11.2916 9.97295 11.3993 9.76952 11.4471 9.54217C11.495 9.31481 11.483 9.08745 11.3993 8.87206C10.9565 7.69937 10.6574 6.47882 10.4898 5.2463C10.4539 4.97108 10.3103 4.70782 10.0949 4.51637C9.87956 4.33687 9.60434 4.22918 9.31715 4.22918Z" fill="white"/>
</svg>
