<svg width="65" height="64" viewBox="0 0 65 64" fill="none" xmlns="http://www.w3.org/2000/svg">
<circle cx="32.2754" cy="32" r="30.5287" stroke="white" stroke-opacity="0.87" stroke-width="2.94253"/>
<g clip-path="url(#clip0_994_2274)">
<path d="M17.1003 30.8366C25.3579 27.2397 30.863 24.8684 33.6155 23.7225C41.4837 20.4509 43.1166 19.8827 44.1831 19.8634C44.4176 19.8597 44.9398 19.9177 45.2806 20.1931C45.5638 20.4255 45.6434 20.7397 45.6833 20.9603C45.7187 21.1806 45.7674 21.6829 45.7275 22.075C45.3027 26.5534 43.4574 37.421 42.5192 42.4371C42.1253 44.5594 41.3421 45.271 40.5853 45.3405C38.9391 45.4918 37.6912 44.2536 36.0981 43.2097C33.6067 41.5755 32.1994 40.5585 29.7788 38.9641C26.982 37.1214 28.7964 36.1085 30.3895 34.4534C30.8055 34.0202 38.0541 27.4287 38.1913 26.8308C38.209 26.7561 38.2267 26.4773 38.0585 26.3303C37.8948 26.183 37.6514 26.2334 37.4744 26.2733C37.2221 26.3299 33.2438 28.9621 25.5261 34.1693C24.3976 34.9455 23.3754 35.3239 22.4549 35.3039C21.446 35.2823 19.4988 34.7322 18.0518 34.2622C16.2817 33.6856 14.87 33.3807 14.9939 32.4014C15.0559 31.8916 15.7595 31.3699 17.1003 30.8366Z" fill="white" fill-opacity="0.87"/>
</g>
<defs>
<clipPath id="clip0_994_2274">
<rect width="56.6437" height="56.6437" fill="white" transform="translate(3.95312 3.67969)"/>
</clipPath>
</defs>
</svg>
