<svg width="1963" height="332" viewBox="0 0 1963 332" fill="none" xmlns="http://www.w3.org/2000/svg">
<g filter="url(#filter0_f_2345_3835)">
<rect x="449" y="76" width="1074" height="180" rx="80" fill="url(#paint0_linear_2345_3835)"/>
</g>
<g filter="url(#filter1_f_2345_3835)">
<rect x="449" y="76" width="1074" height="180" rx="80" fill="url(#paint1_linear_2345_3835)"/>
</g>
<rect x="449" y="76" width="1074" height="180" rx="80" fill="url(#paint2_linear_2345_3835)"/>
<g filter="url(#filter2_f_2345_3835)">
<rect x="449" y="84" width="1064" height="164" rx="80" fill="white"/>
</g>
<rect x="449" y="84" width="1064" height="164" rx="80" fill="white"/>
<g filter="url(#filter3_f_2345_3835)">
<path d="M1936 169C1771 155.5 1575.5 194.5 1474.5 96V235.5C1539 158.5 1776.5 181 1936 169Z" fill="url(#paint3_linear_2345_3835)"/>
</g>
<path d="M1936 169C1771 155.5 1575.5 194.5 1474.5 96V235.5C1539 158.5 1776.5 181 1936 169Z" fill="white"/>
<g filter="url(#filter4_f_2345_3835)">
<path d="M27 169C192 155.5 387.5 194.5 488.5 96V235.5C424 158.5 186.5 181 27 169Z" fill="url(#paint4_linear_2345_3835)"/>
</g>
<path d="M27 169C192 155.5 387.5 194.5 488.5 96V235.5C424 158.5 186.5 181 27 169Z" fill="white"/>
<rect x="461" y="94.5" width="1039" height="143" rx="71.5" fill="#070707"/>
<rect x="461" y="94.5" width="1039" height="143" rx="71.5" stroke="white"/>
<defs>
<filter id="filter0_f_2345_3835" x="373.7" y="0.699997" width="1224.6" height="330.6" filterUnits="userSpaceOnUse" color-interpolation-filters="sRGB">
<feFlood flood-opacity="0" result="BackgroundImageFix"/>
<feBlend mode="normal" in="SourceGraphic" in2="BackgroundImageFix" result="shape"/>
<feGaussianBlur stdDeviation="37.65" result="effect1_foregroundBlur_2345_3835"/>
</filter>
<filter id="filter1_f_2345_3835" x="429.4" y="56.4" width="1113.2" height="219.2" filterUnits="userSpaceOnUse" color-interpolation-filters="sRGB">
<feFlood flood-opacity="0" result="BackgroundImageFix"/>
<feBlend mode="normal" in="SourceGraphic" in2="BackgroundImageFix" result="shape"/>
<feGaussianBlur stdDeviation="9.8" result="effect1_foregroundBlur_2345_3835"/>
</filter>
<filter id="filter2_f_2345_3835" x="417.6" y="52.6" width="1126.8" height="226.8" filterUnits="userSpaceOnUse" color-interpolation-filters="sRGB">
<feFlood flood-opacity="0" result="BackgroundImageFix"/>
<feBlend mode="normal" in="SourceGraphic" in2="BackgroundImageFix" result="shape"/>
<feGaussianBlur stdDeviation="15.7" result="effect1_foregroundBlur_2345_3835"/>
</filter>
<filter id="filter3_f_2345_3835" x="1447.5" y="69" width="515.5" height="193.5" filterUnits="userSpaceOnUse" color-interpolation-filters="sRGB">
<feFlood flood-opacity="0" result="BackgroundImageFix"/>
<feBlend mode="normal" in="SourceGraphic" in2="BackgroundImageFix" result="shape"/>
<feGaussianBlur stdDeviation="13.5" result="effect1_foregroundBlur_2345_3835"/>
</filter>
<filter id="filter4_f_2345_3835" x="0" y="69" width="515.5" height="193.5" filterUnits="userSpaceOnUse" color-interpolation-filters="sRGB">
<feFlood flood-opacity="0" result="BackgroundImageFix"/>
<feBlend mode="normal" in="SourceGraphic" in2="BackgroundImageFix" result="shape"/>
<feGaussianBlur stdDeviation="13.5" result="effect1_foregroundBlur_2345_3835"/>
</filter>
<linearGradient id="paint0_linear_2345_3835" x1="449" y1="166" x2="1523" y2="166" gradientUnits="userSpaceOnUse">
<stop stop-color="#0DE7F4"/>
<stop offset="1" stop-color="#5119E8"/>
</linearGradient>
<linearGradient id="paint1_linear_2345_3835" x1="449" y1="166" x2="1523" y2="166" gradientUnits="userSpaceOnUse">
<stop stop-color="#0DE7F4"/>
<stop offset="1" stop-color="#5119E8"/>
</linearGradient>
<linearGradient id="paint2_linear_2345_3835" x1="449" y1="166" x2="1523" y2="166" gradientUnits="userSpaceOnUse">
<stop stop-color="#0DE7F4"/>
<stop offset="1" stop-color="#5119E8"/>
</linearGradient>
<linearGradient id="paint3_linear_2345_3835" x1="1474.5" y1="165.75" x2="1936" y2="165.75" gradientUnits="userSpaceOnUse">
<stop stop-color="#754EED"/>
<stop offset="1" stop-color="white"/>
</linearGradient>
<linearGradient id="paint4_linear_2345_3835" x1="488.5" y1="165.75" x2="27" y2="165.75" gradientUnits="userSpaceOnUse">
<stop stop-color="#65EBF7"/>
<stop offset="1" stop-color="white"/>
</linearGradient>
</defs>
</svg>
