<svg width="1214" height="272" viewBox="0 0 1214 272" fill="none" xmlns="http://www.w3.org/2000/svg">
<g clip-path="url(#clip0_2346_3897)">
<g filter="url(#filter0_f_2346_3897)">
<rect x="74" y="46" width="1074" height="180" rx="80" fill="url(#paint0_linear_2346_3897)"/>
</g>
<g filter="url(#filter1_f_2346_3897)">
<rect x="74" y="46" width="1074" height="180" rx="80" fill="url(#paint1_linear_2346_3897)"/>
</g>
<rect x="74" y="46" width="1074" height="180" rx="80" fill="url(#paint2_linear_2346_3897)"/>
<g filter="url(#filter2_f_2346_3897)">
<rect x="74" y="54" width="1064" height="164" rx="80" fill="white"/>
</g>
<rect x="74" y="54" width="1064" height="164" rx="80" fill="white"/>
<g filter="url(#filter3_f_2346_3897)">
<path d="M1561 139C1396 125.5 1200.5 164.5 1099.5 66V205.5C1164 128.5 1401.5 151 1561 139Z" fill="url(#paint3_linear_2346_3897)"/>
</g>
<path d="M1561 139C1396 125.5 1200.5 164.5 1099.5 66V205.5C1164 128.5 1401.5 151 1561 139Z" fill="white"/>
<g filter="url(#filter4_f_2346_3897)">
<path d="M-348 139C-183 125.5 12.5 164.5 113.5 66V205.5C49 128.5 -188.5 151 -348 139Z" fill="url(#paint4_linear_2346_3897)"/>
</g>
<path d="M-348 139C-183 125.5 12.5 164.5 113.5 66V205.5C49 128.5 -188.5 151 -348 139Z" fill="white"/>
<rect x="86" y="64.5" width="1039" height="143" rx="71.5" fill="#070707"/>
<rect x="86" y="64.5" width="1039" height="143" rx="71.5" stroke="white"/>
</g>
<defs>
<filter id="filter0_f_2346_3897" x="-1.3" y="-29.3" width="1224.6" height="330.6" filterUnits="userSpaceOnUse" color-interpolation-filters="sRGB">
<feFlood flood-opacity="0" result="BackgroundImageFix"/>
<feBlend mode="normal" in="SourceGraphic" in2="BackgroundImageFix" result="shape"/>
<feGaussianBlur stdDeviation="37.65" result="effect1_foregroundBlur_2346_3897"/>
</filter>
<filter id="filter1_f_2346_3897" x="54.4" y="26.4" width="1113.2" height="219.2" filterUnits="userSpaceOnUse" color-interpolation-filters="sRGB">
<feFlood flood-opacity="0" result="BackgroundImageFix"/>
<feBlend mode="normal" in="SourceGraphic" in2="BackgroundImageFix" result="shape"/>
<feGaussianBlur stdDeviation="9.8" result="effect1_foregroundBlur_2346_3897"/>
</filter>
<filter id="filter2_f_2346_3897" x="42.6" y="22.6" width="1126.8" height="226.8" filterUnits="userSpaceOnUse" color-interpolation-filters="sRGB">
<feFlood flood-opacity="0" result="BackgroundImageFix"/>
<feBlend mode="normal" in="SourceGraphic" in2="BackgroundImageFix" result="shape"/>
<feGaussianBlur stdDeviation="15.7" result="effect1_foregroundBlur_2346_3897"/>
</filter>
<filter id="filter3_f_2346_3897" x="1072.5" y="39" width="515.5" height="193.5" filterUnits="userSpaceOnUse" color-interpolation-filters="sRGB">
<feFlood flood-opacity="0" result="BackgroundImageFix"/>
<feBlend mode="normal" in="SourceGraphic" in2="BackgroundImageFix" result="shape"/>
<feGaussianBlur stdDeviation="13.5" result="effect1_foregroundBlur_2346_3897"/>
</filter>
<filter id="filter4_f_2346_3897" x="-375" y="39" width="515.5" height="193.5" filterUnits="userSpaceOnUse" color-interpolation-filters="sRGB">
<feFlood flood-opacity="0" result="BackgroundImageFix"/>
<feBlend mode="normal" in="SourceGraphic" in2="BackgroundImageFix" result="shape"/>
<feGaussianBlur stdDeviation="13.5" result="effect1_foregroundBlur_2346_3897"/>
</filter>
<linearGradient id="paint0_linear_2346_3897" x1="74" y1="136" x2="1148" y2="136" gradientUnits="userSpaceOnUse">
<stop stop-color="#0DE7F4"/>
<stop offset="1" stop-color="#5119E8"/>
</linearGradient>
<linearGradient id="paint1_linear_2346_3897" x1="74" y1="136" x2="1148" y2="136" gradientUnits="userSpaceOnUse">
<stop stop-color="#0DE7F4"/>
<stop offset="1" stop-color="#5119E8"/>
</linearGradient>
<linearGradient id="paint2_linear_2346_3897" x1="74" y1="136" x2="1148" y2="136" gradientUnits="userSpaceOnUse">
<stop stop-color="#0DE7F4"/>
<stop offset="1" stop-color="#5119E8"/>
</linearGradient>
<linearGradient id="paint3_linear_2346_3897" x1="1099.5" y1="135.75" x2="1561" y2="135.75" gradientUnits="userSpaceOnUse">
<stop stop-color="#754EED"/>
<stop offset="1" stop-color="white"/>
</linearGradient>
<linearGradient id="paint4_linear_2346_3897" x1="113.5" y1="135.75" x2="-348" y2="135.75" gradientUnits="userSpaceOnUse">
<stop stop-color="#65EBF7"/>
<stop offset="1" stop-color="white"/>
</linearGradient>
<clipPath id="clip0_2346_3897">
<rect width="1214" height="272" fill="white"/>
</clipPath>
</defs>
</svg>
